<?xml version="1.0" encoding="UTF-8" standalone="no"?>
<!DOCTYPE svg PUBLIC "-//W3C//DTD SVG 1.1//EN"
 "http://www.w3.org/Graphics/SVG/1.1/DTD/svg11.dtd">
<!-- Generated by graphviz version 2.38.0 (20140413.2041)
 -->
<!-- Title: snakemake_dag Pages: 1 -->
<svg width="394pt" height="260pt"
 viewBox="0.00 0.00 394.00 260.00" xmlns="http://www.w3.org/2000/svg" xmlns:xlink="http://www.w3.org/1999/xlink">
<g id="graph0" class="graph" transform="scale(1 1) rotate(0) translate(4 256)">
<title>snakemake_dag</title>
<polygon fill="white" stroke="none" points="-4,4 -4,-256 390,-256 390,4 -4,4"/>
<!-- 0 -->
<g id="node1" class="node"><title>0</title>
<path fill="none" stroke="#d85656" stroke-width="2" d="M189,-36C189,-36 159,-36 159,-36 153,-36 147,-30 147,-24 147,-24 147,-12 147,-12 147,-6 153,-0 159,-0 159,-0 189,-0 189,-0 195,-0 201,-6 201,-12 201,-12 201,-24 201,-24 201,-30 195,-36 189,-36"/>
<text text-anchor="middle" x="174" y="-15.5" font-family="sans" font-size="10.00">all</text>
</g>
<!-- 1 -->
<g id="node2" class="node"><title>1</title>
<path fill="none" stroke="#56c1d8" stroke-width="2" d="M42,-180C42,-180 12,-180 12,-180 6,-180 0,-174 0,-168 0,-168 0,-156 0,-156 0,-150 6,-144 12,-144 12,-144 42,-144 42,-144 48,-144 54,-150 54,-156 54,-156 54,-168 54,-168 54,-174 48,-180 42,-180"/>
<text text-anchor="middle" x="27" y="-159.5" font-family="sans" font-size="10.00">git_diff</text>
</g>
<!-- 3 -->
<g id="node4" class="node"><title>3</title>
<path fill="none" stroke="#d88d56" stroke-width="2" d="M194.5,-108C194.5,-108 153.5,-108 153.5,-108 147.5,-108 141.5,-102 141.5,-96 141.5,-96 141.5,-84 141.5,-84 141.5,-78 147.5,-72 153.5,-72 153.5,-72 194.5,-72 194.5,-72 200.5,-72 206.5,-78 206.5,-84 206.5,-84 206.5,-96 206.5,-96 206.5,-102 200.5,-108 194.5,-108"/>
<text text-anchor="middle" x="174" y="-87.5" font-family="sans" font-size="10.00">hovercraft</text>
</g>
<!-- 1&#45;&gt;3 -->
<g id="edge3" class="edge"><title>1&#45;&gt;3</title>
<path fill="none" stroke="grey" stroke-width="2" d="M54.3051,-147.998C76.1714,-137.585 107.211,-122.804 132.202,-110.904"/>
<polygon fill="grey" stroke="grey" stroke-width="2" points="133.928,-113.958 141.452,-106.499 130.919,-107.638 133.928,-113.958"/>
</g>
<!-- 2 -->
<g id="node3" class="node"><title>2</title>
<path fill="none" stroke="#59d856" stroke-width="2" d="M114,-180C114,-180 84,-180 84,-180 78,-180 72,-174 72,-168 72,-168 72,-156 72,-156 72,-150 78,-144 84,-144 84,-144 114,-144 114,-144 120,-144 126,-150 126,-156 126,-156 126,-168 126,-168 126,-174 120,-180 114,-180"/>
<text text-anchor="middle" x="99" y="-159.5" font-family="sans" font-size="10.00">git_log</text>
</g>
<!-- 2&#45;&gt;3 -->
<g id="edge4" class="edge"><title>2&#45;&gt;3</title>
<path fill="none" stroke="grey" stroke-width="2" d="M117.539,-143.697C126.803,-135.05 138.162,-124.449 148.257,-115.027"/>
<polygon fill="grey" stroke="grey" stroke-width="2" points="150.751,-117.486 155.674,-108.104 145.975,-112.369 150.751,-117.486"/>
</g>
<!-- 3&#45;&gt;0 -->
<g id="edge1" class="edge"><title>3&#45;&gt;0</title>
<path fill="none" stroke="grey" stroke-width="2" d="M174,-71.6966C174,-63.9827 174,-54.7125 174,-46.1124"/>
<polygon fill="grey" stroke="grey" stroke-width="2" points="177.5,-46.1043 174,-36.1043 170.5,-46.1044 177.5,-46.1043"/>
</g>
<!-- 4 -->
<g id="node5" class="node"><title>4</title>
<path fill="none" stroke="#56d8c1" stroke-width="2" d="M362,-252C362,-252 318,-252 318,-252 312,-252 306,-246 306,-240 306,-240 306,-228 306,-228 306,-222 312,-216 318,-216 318,-216 362,-216 362,-216 368,-216 374,-222 374,-228 374,-228 374,-240 374,-240 374,-246 368,-252 362,-252"/>
<text text-anchor="middle" x="340" y="-231.5" font-family="sans" font-size="10.00">color_relief</text>
</g>
<!-- 7 -->
<g id="node8" class="node"><title>7</title>
<path fill="none" stroke="#56d88a" stroke-width="2" d="M374,-180C374,-180 306,-180 306,-180 300,-180 294,-174 294,-168 294,-168 294,-156 294,-156 294,-150 300,-144 306,-144 306,-144 374,-144 374,-144 380,-144 386,-150 386,-156 386,-156 386,-168 386,-168 386,-174 380,-180 374,-180"/>
<text text-anchor="middle" x="340" y="-159.5" font-family="sans" font-size="10.00">color_relief_png</text>
</g>
<!-- 4&#45;&gt;7 -->
<g id="edge7" class="edge"><title>4&#45;&gt;7</title>
<path fill="none" stroke="grey" stroke-width="2" d="M340,-215.697C340,-207.983 340,-198.712 340,-190.112"/>
<polygon fill="grey" stroke="grey" stroke-width="2" points="343.5,-190.104 340,-180.104 336.5,-190.104 343.5,-190.104"/>
</g>
<!-- 5 -->
<g id="node6" class="node"><title>5</title>
<path fill="none" stroke="#d8bc56" stroke-width="2" d="M192,-180C192,-180 156,-180 156,-180 150,-180 144,-174 144,-168 144,-168 144,-156 144,-156 144,-150 150,-144 156,-144 156,-144 192,-144 192,-144 198,-144 204,-150 204,-156 204,-156 204,-168 204,-168 204,-174 198,-180 192,-180"/>
<text text-anchor="middle" x="174" y="-159.5" font-family="sans" font-size="10.00">dag_lidar</text>
</g>
<!-- 5&#45;&gt;3 -->
<g id="edge2" class="edge"><title>5&#45;&gt;3</title>
<path fill="none" stroke="grey" stroke-width="2" d="M174,-143.697C174,-135.983 174,-126.712 174,-118.112"/>
<polygon fill="grey" stroke="grey" stroke-width="2" points="177.5,-118.104 174,-108.104 170.5,-118.104 177.5,-118.104"/>
</g>
<!-- 6 -->
<g id="node7" class="node"><title>6</title>
<path fill="none" stroke="#568ad8" stroke-width="2" d="M264,-180C264,-180 234,-180 234,-180 228,-180 222,-174 222,-168 222,-168 222,-156 222,-156 222,-150 228,-144 234,-144 234,-144 264,-144 264,-144 270,-144 276,-150 276,-156 276,-156 276,-168 276,-168 276,-174 270,-180 264,-180"/>
<text text-anchor="middle" x="249" y="-159.5" font-family="sans" font-size="10.00">dag</text>
</g>
<!-- 6&#45;&gt;3 -->
<g id="edge5" class="edge"><title>6&#45;&gt;3</title>
<path fill="none" stroke="grey" stroke-width="2" d="M230.461,-143.697C221.197,-135.05 209.838,-124.449 199.743,-115.027"/>
<polygon fill="grey" stroke="grey" stroke-width="2" points="202.025,-112.369 192.326,-108.104 197.249,-117.486 202.025,-112.369"/>
</g>
<!-- 7&#45;&gt;3 -->
<g id="edge6" class="edge"><title>7&#45;&gt;3</title>
<path fill="none" stroke="grey" stroke-width="2" d="M299.392,-143.876C274.114,-133.217 241.665,-119.533 216.11,-108.757"/>
<polygon fill="grey" stroke="grey" stroke-width="2" points="217.257,-105.442 206.682,-104.782 214.537,-111.892 217.257,-105.442"/>
</g>
</g>
</svg>
