<?xml version="1.0" encoding="UTF-8" standalone="no"?>
<!DOCTYPE svg PUBLIC "-//W3C//DTD SVG 1.1//EN"
 "http://www.w3.org/Graphics/SVG/1.1/DTD/svg11.dtd">
<!-- Generated by graphviz version 2.38.0 (20140413.2041)
 -->
<!-- Title: snakemake_dag Pages: 1 -->
<svg width="243pt" height="476pt"
 viewBox="0.00 0.00 242.50 476.00" xmlns="http://www.w3.org/2000/svg" xmlns:xlink="http://www.w3.org/1999/xlink">
<g id="graph0" class="graph" transform="scale(1 1) rotate(0) translate(4 472)">
<title>snakemake_dag</title>
<polygon fill="white" stroke="none" points="-4,4 -4,-472 238.5,-472 238.5,4 -4,4"/>
<!-- 0 -->
<g id="node1" class="node"><title>0</title>
<path fill="none" stroke="#d85656" stroke-width="2" d="M131,-468C131,-468 101,-468 101,-468 95,-468 89,-462 89,-456 89,-456 89,-444 89,-444 89,-438 95,-432 101,-432 101,-432 131,-432 131,-432 137,-432 143,-438 143,-444 143,-444 143,-456 143,-456 143,-462 137,-468 131,-468"/>
<text text-anchor="middle" x="116" y="-447.5" font-family="sans" font-size="10.00">laz</text>
</g>
<!-- 6 -->
<g id="node7" class="node"><title>6</title>
<path fill="none" stroke="#5682d8" stroke-width="2" d="M131,-396C131,-396 101,-396 101,-396 95,-396 89,-390 89,-384 89,-384 89,-372 89,-372 89,-366 95,-360 101,-360 101,-360 131,-360 131,-360 137,-360 143,-366 143,-372 143,-372 143,-384 143,-384 143,-390 137,-396 131,-396"/>
<text text-anchor="middle" x="116" y="-375.5" font-family="sans" font-size="10.00">las</text>
</g>
<!-- 0&#45;&gt;6 -->
<g id="edge9" class="edge"><title>0&#45;&gt;6</title>
<path fill="none" stroke="grey" stroke-width="2" d="M116,-431.697C116,-423.983 116,-414.712 116,-406.112"/>
<polygon fill="grey" stroke="grey" stroke-width="2" points="119.5,-406.104 116,-396.104 112.5,-406.104 119.5,-406.104"/>
</g>
<!-- 1 -->
<g id="node2" class="node"><title>1</title>
<path fill="none" stroke="#d88556" stroke-width="2" d="M131,-36C131,-36 101,-36 101,-36 95,-36 89,-30 89,-24 89,-24 89,-12 89,-12 89,-6 95,-0 101,-0 101,-0 131,-0 131,-0 137,-0 143,-6 143,-12 143,-12 143,-24 143,-24 143,-30 137,-36 131,-36"/>
<text text-anchor="middle" x="116" y="-15.5" font-family="sans" font-size="10.00">all</text>
</g>
<!-- 2 -->
<g id="node3" class="node"><title>2</title>
<path fill="none" stroke="#56d8a9" stroke-width="2" d="M145.5,-108C145.5,-108 86.5,-108 86.5,-108 80.5,-108 74.5,-102 74.5,-96 74.5,-96 74.5,-84 74.5,-84 74.5,-78 80.5,-72 86.5,-72 86.5,-72 145.5,-72 145.5,-72 151.5,-72 157.5,-78 157.5,-84 157.5,-84 157.5,-96 157.5,-96 157.5,-102 151.5,-108 145.5,-108"/>
<text text-anchor="middle" x="116" y="-87.5" font-family="sans" font-size="10.00">merged_relief</text>
</g>
<!-- 2&#45;&gt;1 -->
<g id="edge1" class="edge"><title>2&#45;&gt;1</title>
<path fill="none" stroke="grey" stroke-width="2" d="M116,-71.6966C116,-63.9827 116,-54.7125 116,-46.1124"/>
<polygon fill="grey" stroke="grey" stroke-width="2" points="119.5,-46.1043 116,-36.1043 112.5,-46.1044 119.5,-46.1043"/>
</g>
<!-- 3 -->
<g id="node4" class="node"><title>3</title>
<path fill="none" stroke="#56d8d8" stroke-width="2" d="M56,-180C56,-180 12,-180 12,-180 6,-180 0,-174 0,-168 0,-168 0,-156 0,-156 0,-150 6,-144 12,-144 12,-144 56,-144 56,-144 62,-144 68,-150 68,-156 68,-156 68,-168 68,-168 68,-174 62,-180 56,-180"/>
<text text-anchor="middle" x="34" y="-159.5" font-family="sans" font-size="10.00">color_relief</text>
</g>
<!-- 3&#45;&gt;2 -->
<g id="edge3" class="edge"><title>3&#45;&gt;2</title>
<path fill="none" stroke="grey" stroke-width="2" d="M54.2697,-143.697C64.4976,-134.965 77.0611,-124.24 88.1782,-114.75"/>
<polygon fill="grey" stroke="grey" stroke-width="2" points="90.6303,-117.259 95.9635,-108.104 86.0854,-111.935 90.6303,-117.259"/>
</g>
<!-- 4 -->
<g id="node5" class="node"><title>4</title>
<path fill="none" stroke="#d6d856" stroke-width="2" d="M131,-252C131,-252 101,-252 101,-252 95,-252 89,-246 89,-240 89,-240 89,-228 89,-228 89,-222 95,-216 101,-216 101,-216 131,-216 131,-216 137,-216 143,-222 143,-228 143,-228 143,-240 143,-240 143,-246 137,-252 131,-252"/>
<text text-anchor="middle" x="116" y="-231.5" font-family="sans" font-size="10.00">dem</text>
</g>
<!-- 4&#45;&gt;3 -->
<g id="edge5" class="edge"><title>4&#45;&gt;3</title>
<path fill="none" stroke="grey" stroke-width="2" d="M95.7303,-215.697C85.5024,-206.965 72.9389,-196.24 61.8218,-186.75"/>
<polygon fill="grey" stroke="grey" stroke-width="2" points="63.9146,-183.935 54.0365,-180.104 59.3697,-189.259 63.9146,-183.935"/>
</g>
<!-- 5 -->
<g id="node6" class="node"><title>5</title>
<path fill="none" stroke="#afd856" stroke-width="2" d="M133.5,-180C133.5,-180 98.5,-180 98.5,-180 92.5,-180 86.5,-174 86.5,-168 86.5,-168 86.5,-156 86.5,-156 86.5,-150 92.5,-144 98.5,-144 98.5,-144 133.5,-144 133.5,-144 139.5,-144 145.5,-150 145.5,-156 145.5,-156 145.5,-168 145.5,-168 145.5,-174 139.5,-180 133.5,-180"/>
<text text-anchor="middle" x="116" y="-159.5" font-family="sans" font-size="10.00">hillshade</text>
</g>
<!-- 4&#45;&gt;5 -->
<g id="edge8" class="edge"><title>4&#45;&gt;5</title>
<path fill="none" stroke="grey" stroke-width="2" d="M116,-215.697C116,-207.983 116,-198.712 116,-190.112"/>
<polygon fill="grey" stroke="grey" stroke-width="2" points="119.5,-190.104 116,-180.104 112.5,-190.104 119.5,-190.104"/>
</g>
<!-- 7 -->
<g id="node8" class="node"><title>7</title>
<path fill="none" stroke="#80d856" stroke-width="2" d="M222.5,-180C222.5,-180 175.5,-180 175.5,-180 169.5,-180 163.5,-174 163.5,-168 163.5,-168 163.5,-156 163.5,-156 163.5,-150 169.5,-144 175.5,-144 175.5,-144 222.5,-144 222.5,-144 228.5,-144 234.5,-150 234.5,-156 234.5,-156 234.5,-168 234.5,-168 234.5,-174 228.5,-180 222.5,-180"/>
<text text-anchor="middle" x="199" y="-159.5" font-family="sans" font-size="10.00">slope_relief</text>
</g>
<!-- 4&#45;&gt;7 -->
<g id="edge10" class="edge"><title>4&#45;&gt;7</title>
<path fill="none" stroke="grey" stroke-width="2" d="M136.517,-215.697C146.869,-206.965 159.586,-196.24 170.839,-186.75"/>
<polygon fill="grey" stroke="grey" stroke-width="2" points="173.331,-189.227 178.719,-180.104 168.818,-183.876 173.331,-189.227"/>
</g>
<!-- 5&#45;&gt;2 -->
<g id="edge4" class="edge"><title>5&#45;&gt;2</title>
<path fill="none" stroke="grey" stroke-width="2" d="M116,-143.697C116,-135.983 116,-126.712 116,-118.112"/>
<polygon fill="grey" stroke="grey" stroke-width="2" points="119.5,-118.104 116,-108.104 112.5,-118.104 119.5,-118.104"/>
</g>
<!-- 6&#45;&gt;4 -->
<g id="edge6" class="edge"><title>6&#45;&gt;4</title>
<path fill="none" stroke="grey" stroke-width="2" d="M112.752,-359.888C110.954,-349.542 108.905,-336.063 108,-324 106.803,-308.045 106.803,-303.955 108,-288 108.637,-279.518 109.838,-270.336 111.121,-262.036"/>
<polygon fill="grey" stroke="grey" stroke-width="2" points="114.584,-262.547 112.752,-252.112 107.676,-261.412 114.584,-262.547"/>
</g>
<!-- 8 -->
<g id="node9" class="node"><title>8</title>
<path fill="none" stroke="#59d856" stroke-width="2" d="M159,-324C159,-324 129,-324 129,-324 123,-324 117,-318 117,-312 117,-312 117,-300 117,-300 117,-294 123,-288 129,-288 129,-288 159,-288 159,-288 165,-288 171,-294 171,-300 171,-300 171,-312 171,-312 171,-318 165,-324 159,-324"/>
<text text-anchor="middle" x="144" y="-303.5" font-family="sans" font-size="10.00">shp</text>
</g>
<!-- 6&#45;&gt;8 -->
<g id="edge11" class="edge"><title>6&#45;&gt;8</title>
<path fill="none" stroke="grey" stroke-width="2" d="M122.921,-359.697C126.075,-351.813 129.878,-342.304 133.381,-333.546"/>
<polygon fill="grey" stroke="grey" stroke-width="2" points="136.694,-334.689 137.158,-324.104 130.195,-332.089 136.694,-334.689"/>
</g>
<!-- 7&#45;&gt;2 -->
<g id="edge2" class="edge"><title>7&#45;&gt;2</title>
<path fill="none" stroke="grey" stroke-width="2" d="M178.483,-143.697C168.131,-134.965 155.414,-124.24 144.161,-114.75"/>
<polygon fill="grey" stroke="grey" stroke-width="2" points="146.182,-111.876 136.281,-108.104 141.669,-117.227 146.182,-111.876"/>
</g>
<!-- 8&#45;&gt;4 -->
<g id="edge7" class="edge"><title>8&#45;&gt;4</title>
<path fill="none" stroke="grey" stroke-width="2" d="M137.079,-287.697C133.925,-279.813 130.122,-270.304 126.619,-261.546"/>
<polygon fill="grey" stroke="grey" stroke-width="2" points="129.805,-260.089 122.842,-252.104 123.306,-262.689 129.805,-260.089"/>
</g>
</g>
</svg>
